# xmcd CD database file
#
# Track frame offsets:
#	150
#	18116
#	31787
#	56067
#	68264
#	76053
#	89704
#	99610
#	111494
#	121137
#
# Disc length: 1858 seconds
#
# Revision: 0
# Processed by: cddbd v1.4PL0 Copyright (c) Steve Scherf et al.
# Submitted via: CDex 1.51
#
DISCID=7307400a
DTITLE=Rusty Nail and The Lockjaws - Vol. 3:  Standards
DYEAR=2001
DGENRE=Jazz
TTITLE0=Our Love Is Here to Say
TTITLE1=They All Laughed
TTITLE2=The Girl From Ipanema
TTITLE3=You'd Have Me Yellin'
TTITLE4=International Space Magnet
TTITLE5=Y10K
TTITLE6=I'm Gonna Boil Me A Cornish Hen
TTITLE7=Going to the Library
TTITLE8=Going to the Mines
TTITLE9=Think' About Global Warming
EXTD=YEAR: 2001
EXTT0=
EXTT1=
EXTT2=
EXTT3=
EXTT4=
EXTT5=
EXTT6=
EXTT7=
EXTT8=
EXTT9=
PLAYORDER=
